HIERARCHY
ROOT Hips
{
	OFFSET -14.64140 90.27770 -84.91600
	CHANNELS 6 Xposition Yposition Zposition Zrotation Xrotation Yrotation
	JOINT Spine
	{
		OFFSET 0.00000 13.20850 -1.60436
		CHANNELS 3 Zrotation Xrotation Yrotation
		JOINT Spine1
		{
			OFFSET 0.00000 8.61716 0.00000
			CHANNELS 3 Zrotation Xrotation Yrotation
			JOINT Spine2
			{
				OFFSET 0.00000 8.61717 0.00000
				CHANNELS 3 Zrotation Xrotation Yrotation
				JOINT Spine3
				{
					OFFSET 0.00000 8.61717 0.00000
					CHANNELS 3 Zrotation Xrotation Yrotation
					JOINT Neck
					{
						OFFSET 0.00000 11.07920 1.10792
						CHANNELS 3 Zrotation Xrotation Yrotation
						JOINT Neck1
						{
							OFFSET 0.00000 7.08032 0.00000
							CHANNELS 3 Zrotation Xrotation Yrotation
							JOINT Head
							{
								OFFSET 0.00000 7.08031 0.00000
								CHANNELS 3 Zrotation Xrotation Yrotation
								End site
								{
									OFFSET 0.00000 0.00000 0.00000
								}
							}
						}
					}
					JOINT RightShoulder
					{
						OFFSET -0.01000 7.91373 5.19711
						CHANNELS 3 Zrotation Xrotation Yrotation
						JOINT RightArm
						{
							OFFSET -18.41580 0.00000 0.00000
							CHANNELS 3 Zrotation Xrotation Yrotation
							JOINT RightForeArm
							{
								OFFSET -29.11090 0.00000 0.00000
								CHANNELS 3 Zrotation Xrotation Yrotation
								JOINT RightHand
								{
									OFFSET -24.65040 0.00000 0.00000
									CHANNELS 3 Zrotation Xrotation Yrotation
									JOINT RightHandThumb1
									{
										OFFSET -5.35114 -0.85590 3.97906
										CHANNELS 3 Zrotation Xrotation Yrotation
										JOINT RightHandThumb2
										{
											OFFSET -4.52789 0.00000 0.00000
											CHANNELS 3 Zrotation Xrotation Yrotation
											JOINT RightHandThumb3
											{
												OFFSET -2.46976 0.00000 0.00000
												CHANNELS 3 Zrotation Xrotation Yrotation
												End site
												{
													OFFSET 0.00000 0.00000 0.00000
												}
											}
										}
									}
									JOINT RightHandIndex1
									{
										OFFSET -14.26970 0.00000 2.88139
										CHANNELS 3 Zrotation Xrotation Yrotation
										JOINT RightHandIndex2
										{
											OFFSET -5.48836 0.00000 0.00000
											CHANNELS 3 Zrotation Xrotation Yrotation
											JOINT RightHandIndex3
											{
												OFFSET -3.01859 0.00000 0.00000
												CHANNELS 3 Zrotation Xrotation Yrotation
												End site
												{
													OFFSET 0.00000 0.00000 0.00000
												}
											}
										}
									}
									JOINT RightHandMiddle1
									{
										OFFSET -14.26970 0.00000 -0.09147
										CHANNELS 3 Zrotation Xrotation Yrotation
										JOINT RightHandMiddle2
										{
											OFFSET -6.17441 0.00000 0.00000
											CHANNELS 3 Zrotation Xrotation Yrotation
											JOINT RightHandMiddle3
											{
												OFFSET -3.56743 0.00000 0.00000
												CHANNELS 3 Zrotation Xrotation Yrotation
												End site
												{
													OFFSET 0.00000 0.00000 0.00000
												}
											}
										}
									}
									JOINT RightHandRing1
									{
										OFFSET -12.69180 0.00000 -3.06433
										CHANNELS 3 Zrotation Xrotation Yrotation
										JOINT RightHandRing2
										{
											OFFSET -5.62556 0.00000 0.00000
											CHANNELS 3 Zrotation Xrotation Yrotation
											JOINT RightHandRing3
											{
												OFFSET -3.56744 0.00000 0.00000
												CHANNELS 3 Zrotation Xrotation Yrotation
												End site
												{
													OFFSET 0.00000 0.00000 0.00000
												}
											}
										}
									}
									JOINT RightHandPinky1
									{
										OFFSET -11.11390 0.00000 -6.03719
										CHANNELS 3 Zrotation Xrotation Yrotation
										JOINT RightHandPinky2
										{
											OFFSET -4.52789 0.00000 0.00000
											CHANNELS 3 Zrotation Xrotation Yrotation
											JOINT RightHandPinky3
											{
												OFFSET -2.46976 0.00000 0.00000
												CHANNELS 3 Zrotation Xrotation Yrotation
												End site
												{
													OFFSET 0.00000 0.00000 0.00000
												}
											}
										}
									}
								}
							}
						}
					}
					JOINT LeftShoulder
					{
						OFFSET 0.01000 7.91373 5.19711
						CHANNELS 3 Zrotation Xrotation Yrotation
						JOINT LeftArm
						{
							OFFSET 18.41580 0.00000 0.00000
							CHANNELS 3 Zrotation Xrotation Yrotation
							JOINT LeftForeArm
							{
								OFFSET 29.11090 0.00000 0.00000
								CHANNELS 3 Zrotation Xrotation Yrotation
								JOINT LeftHand
								{
									OFFSET 24.65040 0.00000 0.00000
									CHANNELS 3 Zrotation Xrotation Yrotation
									JOINT LeftHandThumb1
									{
										OFFSET 5.35114 -0.85590 3.97906
										CHANNELS 3 Zrotation Xrotation Yrotation
										JOINT LeftHandThumb2
										{
											OFFSET 4.52789 0.00000 0.00000
											CHANNELS 3 Zrotation Xrotation Yrotation
											JOINT LeftHandThumb3
											{
												OFFSET 2.46977 0.00000 0.00000
												CHANNELS 3 Zrotation Xrotation Yrotation
												End site
												{
													OFFSET 0.00000 0.00000 0.00000
												}
											}
										}
									}
									JOINT LeftHandIndex1
									{
										OFFSET 14.26970 0.00000 2.88139
										CHANNELS 3 Zrotation Xrotation Yrotation
										JOINT LeftHandIndex2
										{
											OFFSET 5.48836 0.00000 0.00000
											CHANNELS 3 Zrotation Xrotation Yrotation
											JOINT LeftHandIndex3
											{
												OFFSET 3.01859 0.00000 0.00000
												CHANNELS 3 Zrotation Xrotation Yrotation
												End site
												{
													OFFSET 0.00000 0.00000 0.00000
												}
											}
										}
									}
									JOINT LeftHandMiddle1
									{
										OFFSET 14.26970 0.00000 -0.09147
										CHANNELS 3 Zrotation Xrotation Yrotation
										JOINT LeftHandMiddle2
										{
											OFFSET 6.17440 0.00000 0.00000
											CHANNELS 3 Zrotation Xrotation Yrotation
											JOINT LeftHandMiddle3
											{
												OFFSET 3.56744 0.00000 0.00000
												CHANNELS 3 Zrotation Xrotation Yrotation
												End site
												{
													OFFSET 0.00000 0.00000 0.00000
												}
											}
										}
									}
									JOINT LeftHandRing1
									{
										OFFSET 12.69180 0.00000 -3.06433
										CHANNELS 3 Zrotation Xrotation Yrotation
										JOINT LeftHandRing2
										{
											OFFSET 5.62556 0.00000 0.00000
											CHANNELS 3 Zrotation Xrotation Yrotation
											JOINT LeftHandRing3
											{
												OFFSET 3.56744 0.00000 0.00000
												CHANNELS 3 Zrotation Xrotation Yrotation
												End site
												{
													OFFSET 0.00000 0.00000 0.00000
												}
											}
										}
									}
									JOINT LeftHandPinky1
									{
										OFFSET 11.11390 0.00000 -6.03719
										CHANNELS 3 Zrotation Xrotation Yrotation
										JOINT LeftHandPinky2
										{
											OFFSET 4.52789 0.00000 0.00000
											CHANNELS 3 Zrotation Xrotation Yrotation
											JOINT LeftHandPinky3
											{
												OFFSET 2.46976 0.00000 0.00000
												CHANNELS 3 Zrotation Xrotation Yrotation
												End site
												{
													OFFSET 0.00000 0.00000 0.00000
												}
											}
										}
									}
								}
							}
						}
					}
					JOINT pCube4
					{
						OFFSET 0.00000 10.91090 1.10792
						CHANNELS 3 Zrotation Xrotation Yrotation
						End site
						{
							OFFSET 0.00000 0.00000 0.00000
						}
					}
				}
			}
		}
	}
	JOINT RightUpLeg
	{
		OFFSET -9.98441 0.00000 0.00000
		CHANNELS 3 Zrotation Xrotation Yrotation
		JOINT RightLeg
		{
			OFFSET 0.00000 -42.11790 0.00000
			CHANNELS 3 Zrotation Xrotation Yrotation
			JOINT RightFoot
			{
				OFFSET 0.00000 -45.00020 -0.00001
				CHANNELS 3 Zrotation Xrotation Yrotation
				JOINT RightForeFoot
				{
					OFFSET 0.00000 -3.74820 0.00000
					CHANNELS 3 Zrotation Xrotation Yrotation
					JOINT RightToeBase
					{
						OFFSET 0.00000 0.06325 14.43120
						CHANNELS 3 Zrotation Xrotation Yrotation
						End site
						{
							OFFSET 0.00000 0.00000 0.00000
						}
					}
				}
			}
		}
	}
	JOINT LeftUpLeg
	{
		OFFSET 9.98441 0.00000 0.00000
		CHANNELS 3 Zrotation Xrotation Yrotation
		JOINT LeftLeg
		{
			OFFSET 0.00000 -42.11800 0.00000
			CHANNELS 3 Zrotation Xrotation Yrotation
			JOINT LeftFoot
			{
				OFFSET 0.00000 -45.00070 0.00000
				CHANNELS 3 Zrotation Xrotation Yrotation
				JOINT LeftForeFoot
				{
					OFFSET 0.00000 -3.74824 0.00000
					CHANNELS 3 Zrotation Xrotation Yrotation
					JOINT LeftToeBase
					{
						OFFSET 0.00000 0.06325 14.43110
						CHANNELS 3 Zrotation Xrotation Yrotation
						End site
						{
							OFFSET 0.00000 0.00000 0.00000
						}
					}
				}
			}
		}
	}
}
MOTION
Frames: 4
Frame Time: 0.050000
0.010700101857016267 0.044403289888299134 0.01718762200694354 -0.04696462444909713 0.020062795227927727 0.037544399099250315 4.545889914659707 3.1262234197967365 -2.1093038052696835 -0.7601726298805602 3.4944226333159443 0.3833241914863887 -0.6816068967224429 -1.1041546296460838 -0.13356888327355843 -0.409547557330411 -0.24482244142353476 -0.46375708752653 -0.12453323343523978 12.328786126537569 -0.9566600565181937 0.3411510584578534 -0.4840277684398748 -1.458566561057933 0.6910764462168758 -16.821854963773454 -0.17056817357018794 -9.312041425102112 3.207037417952282 -18.442555864494693 77.44309422346826 5.410052685372264 -0.17932431986167646 -17.659894937013934 -4.4804483755234825 59.285183011727966 22.330682082346435 -0.2290523927591705 -7.228421059236099 4.509562032180114 -0.0999866912842001 -1.636004944159095 0.014596724492642151 -0.006774072618791433 -56.276846011623384 -0.00488846154348881 -0.01856122202787861 -56.26857844623909 -38.73782734046865 -0.043987106801021914 -0.012354307947865684 0.004795551719407824 -0.015151898656290384 0.030508827716049132 -0.0487588284423505 -0.003195579332273933 -0.01868516376991791 -36.69511989442014 -0.024705519366853307 -0.010773919294652788 0.04632187697018933 0.0115434297764202 -0.019601139201128184 -0.025214469815609472 -0.017359443790502603 -0.021165985796530395 -19.754156763873972 0.0014187356524878031 0.008948727335440936 -0.003036908509843193 -0.041283907635345146 -0.00993942163454128 0.011471668843688897 -0.04982109872882268 -0.003083768007169531 24.080112281950406 0.014942145915813698 -0.01584554293961788 28.867978996694106 0.033728378903741335 0.009211175807568354 28.82138862462375 -0.025965381179193798 -0.030192445731370476 10.116309038190712 2.3661985748591614 15.215408538148363 -72.72268256482593 19.886761315317834 -13.913570048478258 -40.6689032269773 6.668034953534359 -90.51458698879254 -21.71819761398728 -9.764312881454941 6.555760970722826 -0.4430663531271399 0.030532714546837925 -8.14759772522791 -0.007454103031509695 -0.009114132249228458 44.60585501690455 -0.008425037121833005 0.02129666961254862 44.532602367234354 12.484114735799164 -0.027704313521777324 -0.022638787013687375 0.037702973784576675 0.014572754646294497 0.04753196648434027 -0.03654714369925795 -0.0331409264720074 0.006898126789609524 11.126839853739089 -0.047726899897948726 -0.03807273953060981 0.020396022357109127 -0.017518934034580432 0.034617132009311186 0.017287539513430032 -0.031009812170488007 0.016092792989429314 4.764566683472468 -0.040652425275606384 0.015190201014327137 0.02391151117056408 0.04487919574081966 0.02353037879152693 -0.045590374364095305 -0.04817702890225529 -0.008851193482399503 -5.598468009916393 0.005279779824241735 -0.005494938651421948 -6.754445614243003 0.011611800787937946 0.006730085462850106 -6.73724048866915 -0.030382162828442368 0.0408547115654819 0.00372978605159484 -0.008719208964377998 -0.0202968080998459 8.070883890748691 3.5256506145637876 -19.21259903185235 -0.027529867015882187 10.40324069883584 0.00560529356754394 -5.593694050937962 -15.655314971019099 3.1731208322158664 -0.01653705263450376 -0.028803587919417947 -0.00811284064344914 0.005565633642948702 4.718518471186197 0.011183797390234578 12.454450820255122 -8.23033497238452 6.8749837123455455 0.01596872147623526 46.425168312818414 -0.004894442100812678 -4.3528282280844515 -14.750941052535124 -3.8605579020994982 0.02574323319917405 0.02835236568207457 0.03854088244478799 0.008454365208202218 -10.706671542888602 0.014732777802725076 
-0.033605157404932307 -0.017600233296615343 0.03997032668978373 -0.006267551079286524 -0.020272733481534078 -0.01622979728629875 4.430780668998773 3.081833712863193 -2.099834823781155 -0.7509400092180506 3.5667588963622174 0.42445994400074183 -0.7041617930675408 -1.0461507160746286 -0.047308466453552606 -0.4263184154603321 -0.30232217338247525 -0.4481543377955952 -0.0887232203768977 12.26318851539348 -1.0656811388217358 0.3270249144995466 -0.47702645225201756 -1.6191343049317846 0.7355475720543078 -16.818387322906144 -0.1448183773425405 -9.324597524683709 3.1471648531347585 -18.446581402978858 77.78535568527215 5.156785787741118 -0.07958633651654873 -18.069921659996442 -4.686647472568002 59.66769498024381 22.534779110743358 -0.25899780707961123 -7.3847996410773895 4.487275023410032 -0.09127313068610472 -1.5452766567625456 0.021369435800677128 0.00210478989093856 -56.21699026473484 -0.028023116750830114 -0.04660756266493461 -56.25735178391728 -38.7596788397059 0.021657530415330698 0.03493006036200021 0.04486356466830664 0.026361138889117057 -0.03689656137205394 0.01061651652927596 -0.005681054490756149 -0.022173193307489965 -36.68477376141796 -0.026383066305912518 -0.045885640968811765 0.0007777387235430329 0.02525929315004935 -0.002345352941512725 -0.014804308435195385 0.030670239266716727 0.00781169305940314 -19.754952753137356 0.01377785569568673 -0.026488985217386272 0.013855734217576892 0.01134660266947783 -0.03022673657881225 0.03920587494355512 0.027705470915446666 -0.008406736102668769 24.03851607008494 0.04644674365832982 -0.0023317509048528437 28.847267516141976 -0.0006570174731237397 7.854978840545939e-05 28.851395374004444 0.016317680841249474 -0.017023912128167822 9.932163608176863 2.3322423650208712 15.29494771054484 -73.55152066934137 19.5637085556949 -12.541442791127787 -43.7282623407141 6.86355866970752 -90.95495099873915 -21.68844556405584 -9.831101700899287 6.6485362929348595 -0.47651259210220487 0.093364786451493 -8.0801932726459 0.003671990694028268 -0.03542770502133532 44.52255247119512 -0.041085372135913074 -0.014128443796998588 44.54876977201696 12.48190783531105 0.0073477436125975815 -0.009661983242697385 -0.037141818130327964 -0.027395552239313052 -0.036119639581655955 -0.023509543682868787 0.005864770296876446 0.003644108825691041 11.134198545767807 -0.041890502633706916 0.04277871878806336 0.04036630046228819 0.0203170830302551 -0.041609085621341746 0.01044431157368976 -0.0018132248767778719 -0.021847772895171827 4.787607551509963 0.022979838055187093 -0.026960244523277502 -0.042536937249269435 -0.04526718173882487 0.013044326077529875 0.02288187900738966 0.042222187395595745 -0.047888630613232 -5.565706682928344 0.012858103451190534 -0.006232642574699194 -6.7542566736662275 0.016202169301299342 0.008754260510755757 -6.6962586210334045 0.03726552170053195 0.009382137151190593 0.006780618964695268 -0.002040411134297346 0.027406643399984342 8.080733318872594 3.48843053283424 -19.17990587235475 -0.011873894048478691 10.416270826032061 0.05854844780307601 -5.593698743886487 -15.665907863870997 3.142259380404914 0.015281732214534955 -0.04050262987078604 0.029156810654574695 -0.005429230494948535 4.739458532210902 0.006723447066088658 12.478817008995877 -8.278071418398934 6.928824941806112 -0.027829378861061578 46.40234579041812 0.01520800502137746 -4.374222731022785 -14.730179719815617 -3.8527847271837774 0.0250870344920151 -0.010044458331925953 -0.0005097603724626682 -0.04531161591377799 -10.767196506755756 0.0292715608121837 
-0.020498423251535863 -0.01753033129784575 0.022769857152261725 -0.018187125838671544 -0.013974759257095485 -0.025459802470292853 4.315358609624236 3.0474602865065528 -2.040687762502119 -0.8022492035908034 3.5483659617663657 0.3501674522994866 -0.6321756436926876 -1.063663120705253 -0.04007149857513024 -0.39651534812132194 -0.26871677246298525 -0.4404264544359454 -0.0783253918111744 12.128516677120361 -0.9301955779260568 0.3377019904616868 -0.5225012976140937 -1.578740991711409 0.7299939921799546 -16.801140352549258 -0.15965755324820952 -9.18305319761596 3.1399817142625244 -18.416285026866873 78.3847670700876 4.162588756975766 0.1350725146381223 -16.774896149209884 -3.9583975892269763 58.41134499714804 22.15768529279922 -0.2600002325979797 -6.935492225552526 4.546171771313721 -0.12943889196973982 -1.6402905138020365 -0.03898452898232722 -0.0028574569654895815 -56.281290100993964 -0.03490109156091513 0.014925506203579296 -56.22408500349994 -38.74516918894764 0.037805939971818074 -0.017596209071111053 0.005300824129061731 0.021552886875403465 0.0002462029795135127 0.04535381308039768 0.03944733383702458 0.02988389370252001 -36.71507335934343 0.0024478518845481496 0.033855046870152075 -0.03830965827300569 0.04064473734009174 0.028791264984889046 0.03736717181240155 0.025750188306794087 -0.01614802980799308 -19.79409791496021 -0.001789364205482166 -0.0005879529724107281 0.041963838700695866 -0.015143951367250842 -0.014844925449504458 -0.02074918655142927 0.0005194522707665943 -0.04051364564483233 24.046206236409976 -0.031297544551389535 -0.044296706512116105 28.878176965325824 0.012037967083615557 0.04184799112675341 28.86261757690921 -0.024700317083194406 0.007957196437948457 9.844177926270609 2.3384012267257632 15.25094062846786 -74.26270734121553 18.825299723618148 -12.065254243881126 -46.50589735860037 6.703744728987748 -91.44493231621519 -21.24714452143455 -9.547476947574536 6.370680859685465 -0.47853898106201537 0.03090428772280148 -8.110991264825985 0.0018037966160836445 -0.02083182002446037 44.567375091842734 -0.03446283710317559 0.032270461590385234 44.57035581303481 12.488014267656865 -0.03454113316254542 -0.02704521634183282 -0.035447331738832584 -0.033799772235758634 0.025710991596343696 -0.045680082258125136 0.019909682466466946 -0.014502998564741361 11.060093729416284 -0.0075695867958435895 -0.025852983025194207 0.048530681977328766 -0.037558587423289914 0.0031374743200865206 0.0018421642122941994 -0.039805732084286304 -0.010079536610186113 4.805588169226605 -0.012717872367861153 0.011966726030240425 0.0028782521713373163 0.028278131965818368 -0.005429452573672176 -0.0020943068242777075 0.04875643857480786 -0.01911494198807888 -5.578526111769355 -0.01051338389578398 -0.017795431678544985 -6.689606263799499 0.01813709348291215 0.011811982784695106 -6.71691537774903 -0.03403375555050203 -0.0405506943425815 0.030584766102108196 -0.03765809856686425 -0.0011180297421870392 8.010849327706621 3.488129424862167 -19.23483605296397 0.043310128081542366 10.402682785369358 -0.011374184155275736 -5.6637171723784725 -15.697562173153585 3.1848704975630993 -0.030340528322152113 -0.0012457811546391685 0.02146340673342296 -0.031810995968287764 4.719012740458892 0.004671889697102267 12.442620285785221 -8.205172382376942 6.912633583294763 0.014733101089182474 46.363916603375976 -0.016462088925311907 -4.356907531921367 -14.743500144348454 -3.78925517394783 -0.01460314222878725 0.018378262682301763 -0.009856927479790256 0.005850152418818361 -10.720227516935168 0.02676724073886412 
-3.075957730191636e-05 0.03217271993716238 -0.04998419220199821 -0.017027031168004036 -0.0030592015796608485 0.02270089153211831 4.235190451189827 2.928814417396957 -2.0497602560306123 -0.7863277131605784 3.499523006130489 0.39758227778747446 -0.7110141700425294 -1.109212412380634 -0.023982907968424595 -0.5005436452319644 -0.29459201641854754 -0.4263933251909984 -0.16279813406103577 12.112026299975172 -0.8328613049291949 0.3485689680842541 -0.4871644273825715 -1.2850510631422305 0.663492366785074 -16.848071608623304 -0.14253204946899828 -9.13925176313524 3.1697797373004297 -18.320584881025063 79.17053301108626 2.81990348981084 0.3283156332925899 -14.637359010430384 -2.1269237139890502 55.92335307682963 21.403776259110195 -0.246837050931125 -6.344898925686778 4.572017016169542 -0.13424213897660991 -1.5849262572969574 -1.959284689272912e-05 0.03839031572753379 -56.19800582690427 -0.020445749061679352 0.014210867438090394 -56.271254763777236 -38.764229965938924 -0.025988443415106626 -0.006978698825072096 -0.01704385363511351 -0.008102587943052039 0.0388389103894218 0.008037412963416295 0.045052232804272556 0.022770426787572007 -36.70135738789373 0.01932154524313812 0.039037572392506416 -0.015508632342878612 0.0012855564322128193 0.02678378009358425 0.006482772877919442 -0.028923300879746212 0.0004602588093229741 -19.78356160263467 -0.016383067530106266 -0.01876146165112147 -0.027648410764175083 0.016639969693070036 0.04838010989322502 -0.004714838552752932 -0.007705892611726564 -0.00964366311557601 24.097685195593517 -0.04797253369503275 -0.005009282793912375 28.85389866062552 -0.02176830233036823 -0.013195227825436034 28.887870578403476 0.005828961635422641 -0.0007867498479185548 9.85590296290175 2.3059707391552617 15.206692851522822 -74.50220319092406 17.9770614044454 -12.436337002110943 -47.51034192677421 6.0510288309777955 -91.52054475565423 -20.403290669345672 -9.179627424488919 5.824187813601099 -0.46823449683870233 0.058597682292846676 -8.106627917936851 -0.0061091791541440545 -0.006562503383172002 44.53694152034094 0.023531666464397236 0.0031252700574451934 44.57870488714805 12.50058138058384 0.04159951053944311 0.021916578224827243 0.005330772600743861 -0.03084343568919013 -0.007097183759556172 -0.0025448533376828775 -0.003492729939910084 0.019108293092412527 11.087926984814658 0.024770257877255338 -0.0047419745836554585 -0.03595719231102045 0.04178890164144909 0.03648236884813454 0.031092276471161258 0.03647295290782316 0.04592235317154617 4.816365916288821 0.007746750790511249 0.008116330804164748 -0.036694123436501004 -0.0030616619417912537 0.01367598797135224 -0.00979674994732737 0.03719647750001232 -0.03721994219564071 -5.5806335086354135 0.047159108202291564 0.02713807362054478 -6.761551023639787 0.013121537923597808 -0.040580350132194604 -6.708396884275323 -0.021933338110642086 -0.048011085650324886 -0.021171935336030307 -0.0184706139125321 0.014509882179605025 8.015951834210961 3.485642241513273 -19.257102712549255 -0.017447486760225506 10.409277603418623 0.004741513446485783 -5.5979856019295315 -15.615483027080646 3.2182142495829846 -0.049997307028118235 0.04866907052227828 -0.011050783760838564 0.03592578482872018 4.7014192652013715 0.00350002567017664 12.424128160643665 -8.277088933861943 6.875655354680409 0.016791014115776683 46.33113031882932 -0.014359288001521496 -4.3126882185637 -14.72840974660806 -3.871664006392316 -0.0015529223326080158 0.006991641199401645 -0.015738141903471885 0.028671511748489798 -10.754496535660852 -0.00592832313387644 
